<?xml version="1.0" encoding="UTF-8" standalone="no"?>
<!DOCTYPE svg PUBLIC "-//W3C//DTD SVG 1.1//EN"
 "http://www.w3.org/Graphics/SVG/1.1/DTD/svg11.dtd">
<!-- Generated by graphviz version 2.40.1 (20161225.0304)
 -->
<!-- Title: dependencies Pages: 1 -->
<svg width="1290pt" height="284pt"
 viewBox="0.00 0.00 1290.00 284.00" xmlns="http://www.w3.org/2000/svg" xmlns:xlink="http://www.w3.org/1999/xlink">
<g id="graph0" class="graph" transform="scale(1 1) rotate(0) translate(4 280)">
<title>dependencies</title>
<polygon fill="#ffffff" stroke="transparent" points="-4,4 -4,-280 1286,-280 1286,4 -4,4"/>
<text text-anchor="start" x="620.0091" y="-42.4" font-family="sans-serif" font-weight="bold" font-size="14.00" fill="#000000">Legend</text>
<polygon fill="#ffffb3" stroke="transparent" points="407,-10 407,-30 427,-30 427,-10 407,-10"/>
<text text-anchor="start" x="430.629" y="-15.4" font-family="sans-serif" font-size="14.00" fill="#000000"> &#160;Declarations</text>
<polygon fill="#8dd3c7" stroke="transparent" points="520,-10 520,-30 540,-30 540,-10 520,-10"/>
<text text-anchor="start" x="543.7251" y="-15.4" font-family="sans-serif" font-size="14.00" fill="#000000"> &#160;Module</text>
<polygon fill="#80b1d3" stroke="transparent" points="606,-10 606,-30 626,-30 626,-10 606,-10"/>
<text text-anchor="start" x="629.7812" y="-15.4" font-family="sans-serif" font-size="14.00" fill="#000000"> &#160;Bootstrap</text>
<polygon fill="#fdb462" stroke="transparent" points="703,-10 703,-30 723,-30 723,-10 703,-10"/>
<text text-anchor="start" x="726.6732" y="-15.4" font-family="sans-serif" font-size="14.00" fill="#000000"> &#160;Providers</text>
<polygon fill="#fb8072" stroke="transparent" points="799,-10 799,-30 819,-30 819,-10 799,-10"/>
<text text-anchor="start" x="822.7258" y="-15.4" font-family="sans-serif" font-size="14.00" fill="#000000"> &#160;Exports</text>
<g id="clust1" class="cluster">
<title>cluster_ResourceRouterModule</title>
<polygon fill="none" stroke="#000000" stroke-dasharray="1,5" points="8,-70 8,-268 1274,-268 1274,-70 8,-70"/>
</g>
<g id="clust2" class="cluster">
<title>cluster_ResourceRouterModule_declarations</title>
<polygon fill="none" stroke="#000000" points="16,-78 16,-130 1266,-130 1266,-78 16,-78"/>
</g>
<g id="clust11" class="cluster">
<title>cluster_ResourceRouterModule_exports</title>
<polygon fill="none" stroke="#000000" points="189,-208 189,-260 1107,-260 1107,-208 189,-208"/>
</g>
<!-- ResourceOutletComponent -->
<g id="node1" class="node">
<title>ResourceOutletComponent</title>
<polygon fill="#ffffb3" stroke="#000000" points="1258.4115,-122 1089.5885,-122 1089.5885,-86 1258.4115,-86 1258.4115,-122"/>
<text text-anchor="middle" x="1174" y="-99.8" font-family="Times,serif" font-size="14.00" fill="#000000">ResourceOutletComponent</text>
</g>
<!-- ResourceRouterModule -->
<g id="node8" class="node">
<title>ResourceRouterModule</title>
<polygon fill="#8dd3c7" stroke="#000000" points="738.738,-187 735.738,-191 714.738,-191 711.738,-187 589.262,-187 589.262,-151 738.738,-151 738.738,-187"/>
<text text-anchor="middle" x="664" y="-164.8" font-family="Times,serif" font-size="14.00" fill="#000000">ResourceRouterModule</text>
</g>
<!-- ResourceOutletComponent&#45;&gt;ResourceRouterModule -->
<g id="edge1" class="edge">
<title>ResourceOutletComponent&#45;&gt;ResourceRouterModule</title>
<path fill="none" stroke="#000000" d="M1094.375,-122.1061C1094.375,-141.3391 1094.375,-169 1094.375,-169 1094.375,-169 748.9656,-169 748.9656,-169"/>
<polygon fill="#000000" stroke="#000000" points="748.9656,-165.5001 738.9656,-169 748.9656,-172.5001 748.9656,-165.5001"/>
</g>
<!-- ResourceDataDirective -->
<g id="node2" class="node">
<title>ResourceDataDirective</title>
<polygon fill="#ffffb3" stroke="#000000" points="1071.0954,-122 924.9046,-122 924.9046,-86 1071.0954,-86 1071.0954,-122"/>
<text text-anchor="middle" x="998" y="-99.8" font-family="Times,serif" font-size="14.00" fill="#000000">ResourceDataDirective</text>
</g>
<!-- ResourceDataDirective&#45;&gt;ResourceRouterModule -->
<g id="edge2" class="edge">
<title>ResourceDataDirective&#45;&gt;ResourceRouterModule</title>
<path fill="none" stroke="#000000" d="M1023.2131,-122.0225C1023.2131,-139.3734 1023.2131,-163 1023.2131,-163 1023.2131,-163 748.8656,-163 748.8656,-163"/>
<polygon fill="#000000" stroke="#000000" points="748.8656,-159.5001 738.8656,-163 748.8656,-166.5001 748.8656,-159.5001"/>
</g>
<!-- ResourceViewDirective -->
<g id="node3" class="node">
<title>ResourceViewDirective</title>
<polygon fill="#ffffb3" stroke="#000000" points="906.4876,-122 755.5124,-122 755.5124,-86 906.4876,-86 906.4876,-122"/>
<text text-anchor="middle" x="831" y="-99.8" font-family="Times,serif" font-size="14.00" fill="#000000">ResourceViewDirective</text>
</g>
<!-- ResourceViewDirective&#45;&gt;ResourceRouterModule -->
<g id="edge3" class="edge">
<title>ResourceViewDirective&#45;&gt;ResourceRouterModule</title>
<path fill="none" stroke="#000000" d="M857.1465,-122.2396C857.1465,-137.5706 857.1465,-157 857.1465,-157 857.1465,-157 748.9519,-157 748.9519,-157"/>
<polygon fill="#000000" stroke="#000000" points="748.9519,-153.5001 738.9519,-157 748.9519,-160.5001 748.9519,-153.5001"/>
</g>
<!-- ResourceLinkDirective -->
<g id="node4" class="node">
<title>ResourceLinkDirective</title>
<polygon fill="#ffffb3" stroke="#000000" points="737.1121,-122 590.8879,-122 590.8879,-86 737.1121,-86 737.1121,-122"/>
<text text-anchor="middle" x="664" y="-99.8" font-family="Times,serif" font-size="14.00" fill="#000000">ResourceLinkDirective</text>
</g>
<!-- ResourceLinkDirective&#45;&gt;ResourceRouterModule -->
<g id="edge4" class="edge">
<title>ResourceLinkDirective&#45;&gt;ResourceRouterModule</title>
<path fill="none" stroke="#000000" d="M664,-122.1061C664,-122.1061 664,-140.991 664,-140.991"/>
<polygon fill="#000000" stroke="#000000" points="660.5001,-140.9909 664,-150.991 667.5001,-140.991 660.5001,-140.9909"/>
</g>
<!-- ResourceLinkWithHrefDirective -->
<g id="node5" class="node">
<title>ResourceLinkWithHrefDirective</title>
<polygon fill="#ffffb3" stroke="#000000" points="573.25,-122 372.75,-122 372.75,-86 573.25,-86 573.25,-122"/>
<text text-anchor="middle" x="473" y="-99.8" font-family="Times,serif" font-size="14.00" fill="#000000">ResourceLinkWithHrefDirective</text>
</g>
<!-- ResourceLinkWithHrefDirective&#45;&gt;ResourceRouterModule -->
<g id="edge5" class="edge">
<title>ResourceLinkWithHrefDirective&#45;&gt;ResourceRouterModule</title>
<path fill="none" stroke="#000000" d="M468.9814,-122.2396C468.9814,-137.5706 468.9814,-157 468.9814,-157 468.9814,-157 579.1585,-157 579.1585,-157"/>
<polygon fill="#000000" stroke="#000000" points="579.1585,-160.5001 589.1585,-157 579.1584,-153.5001 579.1585,-160.5001"/>
</g>
<!-- DefaultEmptyComponent -->
<g id="node6" class="node">
<title>DefaultEmptyComponent</title>
<polygon fill="#ffffb3" stroke="#000000" points="355.1442,-122 194.8558,-122 194.8558,-86 355.1442,-86 355.1442,-122"/>
<text text-anchor="middle" x="275" y="-99.8" font-family="Times,serif" font-size="14.00" fill="#000000">DefaultEmptyComponent</text>
</g>
<!-- DefaultEmptyComponent&#45;&gt;ResourceRouterModule -->
<g id="edge6" class="edge">
<title>DefaultEmptyComponent&#45;&gt;ResourceRouterModule</title>
<path fill="none" stroke="#000000" d="M276.2235,-122.0225C276.2235,-139.3734 276.2235,-163 276.2235,-163 276.2235,-163 579.2328,-163 579.2328,-163"/>
<polygon fill="#000000" stroke="#000000" points="579.2328,-166.5001 589.2328,-163 579.2328,-159.5001 579.2328,-166.5001"/>
</g>
<!-- DefaultErrorComponent -->
<g id="node7" class="node">
<title>DefaultErrorComponent</title>
<polygon fill="#ffffb3" stroke="#000000" points="176.3445,-122 23.6555,-122 23.6555,-86 176.3445,-86 176.3445,-122"/>
<text text-anchor="middle" x="100" y="-99.8" font-family="Times,serif" font-size="14.00" fill="#000000">DefaultErrorComponent</text>
</g>
<!-- DefaultErrorComponent&#45;&gt;ResourceRouterModule -->
<g id="edge7" class="edge">
<title>DefaultErrorComponent&#45;&gt;ResourceRouterModule</title>
<path fill="none" stroke="#000000" d="M100,-122.1061C100,-141.3391 100,-169 100,-169 100,-169 579.1052,-169 579.1052,-169"/>
<polygon fill="#000000" stroke="#000000" points="579.1052,-172.5001 589.1052,-169 579.1051,-165.5001 579.1052,-172.5001"/>
</g>
<!-- ResourceOutletComponent  -->
<g id="node9" class="node">
<title>ResourceOutletComponent </title>
<polygon fill="#fb8072" stroke="#000000" points="1098.911,-252 927.089,-252 927.089,-216 1098.911,-216 1098.911,-252"/>
<text text-anchor="middle" x="1013" y="-229.8" font-family="Times,serif" font-size="14.00" fill="#000000">ResourceOutletComponent </text>
</g>
<!-- ResourceRouterModule&#45;&gt;ResourceOutletComponent  -->
<g id="edge8" class="edge">
<title>ResourceRouterModule&#45;&gt;ResourceOutletComponent </title>
<path fill="none" stroke="#000000" stroke-dasharray="5,2" d="M738.919,-175C830.9817,-175 975.1288,-175 975.1288,-175 975.1288,-175 975.1288,-205.9775 975.1288,-205.9775"/>
<polygon fill="#000000" stroke="#000000" points="971.6289,-205.9774 975.1288,-215.9775 978.6289,-205.9775 971.6289,-205.9774"/>
</g>
<!-- ResourceDataDirective  -->
<g id="node10" class="node">
<title>ResourceDataDirective </title>
<polygon fill="#fb8072" stroke="#000000" points="909.0948,-252 758.9052,-252 758.9052,-216 909.0948,-216 909.0948,-252"/>
<text text-anchor="middle" x="834" y="-229.8" font-family="Times,serif" font-size="14.00" fill="#000000">ResourceDataDirective </text>
</g>
<!-- ResourceRouterModule&#45;&gt;ResourceDataDirective  -->
<g id="edge9" class="edge">
<title>ResourceRouterModule&#45;&gt;ResourceDataDirective </title>
<path fill="none" stroke="#000000" stroke-dasharray="5,2" d="M738.9782,-181C773.9797,-181 808.0495,-181 808.0495,-181 808.0495,-181 808.0495,-205.7604 808.0495,-205.7604"/>
<polygon fill="#000000" stroke="#000000" points="804.5496,-205.7604 808.0495,-215.7604 811.5496,-205.7604 804.5496,-205.7604"/>
</g>
<!-- ResourceViewDirective  -->
<g id="node11" class="node">
<title>ResourceViewDirective </title>
<polygon fill="#fb8072" stroke="#000000" points="740.9868,-252 587.0132,-252 587.0132,-216 740.9868,-216 740.9868,-252"/>
<text text-anchor="middle" x="664" y="-229.8" font-family="Times,serif" font-size="14.00" fill="#000000">ResourceViewDirective </text>
</g>
<!-- ResourceRouterModule&#45;&gt;ResourceViewDirective  -->
<g id="edge10" class="edge">
<title>ResourceRouterModule&#45;&gt;ResourceViewDirective </title>
<path fill="none" stroke="#000000" stroke-dasharray="5,2" d="M664,-187.1061C664,-187.1061 664,-205.991 664,-205.991"/>
<polygon fill="#000000" stroke="#000000" points="660.5001,-205.9909 664,-215.991 667.5001,-205.991 660.5001,-205.9909"/>
</g>
<!-- ResourceLinkDirective  -->
<g id="node12" class="node">
<title>ResourceLinkDirective </title>
<polygon fill="#fb8072" stroke="#000000" points="569.1116,-252 418.8884,-252 418.8884,-216 569.1116,-216 569.1116,-252"/>
<text text-anchor="middle" x="494" y="-229.8" font-family="Times,serif" font-size="14.00" fill="#000000">ResourceLinkDirective </text>
</g>
<!-- ResourceRouterModule&#45;&gt;ResourceLinkDirective  -->
<g id="edge11" class="edge">
<title>ResourceRouterModule&#45;&gt;ResourceLinkDirective </title>
<path fill="none" stroke="#000000" stroke-dasharray="5,2" d="M588.9613,-181C553.5849,-181 519.0186,-181 519.0186,-181 519.0186,-181 519.0186,-205.7604 519.0186,-205.7604"/>
<polygon fill="#000000" stroke="#000000" points="515.5187,-205.7604 519.0186,-215.7604 522.5187,-205.7604 515.5187,-205.7604"/>
</g>
<!-- ResourceLinkWithHrefDirective  -->
<g id="node13" class="node">
<title>ResourceLinkWithHrefDirective </title>
<polygon fill="#fb8072" stroke="#000000" points="400.75,-252 197.25,-252 197.25,-216 400.75,-216 400.75,-252"/>
<text text-anchor="middle" x="299" y="-229.8" font-family="Times,serif" font-size="14.00" fill="#000000">ResourceLinkWithHrefDirective </text>
</g>
<!-- ResourceRouterModule&#45;&gt;ResourceLinkWithHrefDirective  -->
<g id="edge12" class="edge">
<title>ResourceRouterModule&#45;&gt;ResourceLinkWithHrefDirective </title>
<path fill="none" stroke="#000000" stroke-dasharray="5,2" d="M589.006,-175C506.9342,-175 386.875,-175 386.875,-175 386.875,-175 386.875,-205.9775 386.875,-205.9775"/>
<polygon fill="#000000" stroke="#000000" points="383.3751,-205.9774 386.875,-215.9775 390.3751,-205.9775 383.3751,-205.9774"/>
</g>
</g>
</svg>
