<?xml version="1.0" encoding="UTF-8" standalone="no"?>
<!DOCTYPE svg PUBLIC "-//W3C//DTD SVG 1.1//EN"
 "http://www.w3.org/Graphics/SVG/1.1/DTD/svg11.dtd">
<!-- Generated by graphviz version 2.40.1 (20161225.0304)
 -->
<!-- Title: dependencies Pages: 1 -->
<svg width="1486pt" height="284pt"
 viewBox="0.00 0.00 1486.00 284.00" xmlns="http://www.w3.org/2000/svg" xmlns:xlink="http://www.w3.org/1999/xlink">
<g id="graph0" class="graph" transform="scale(1 1) rotate(0) translate(4 280)">
<title>dependencies</title>
<polygon fill="#ffffff" stroke="transparent" points="-4,4 -4,-280 1482,-280 1482,4 -4,4"/>
<text text-anchor="start" x="718.0091" y="-42.4" font-family="sans-serif" font-weight="bold" font-size="14.00" fill="#000000">Legend</text>
<polygon fill="#ffffb3" stroke="transparent" points="505,-10 505,-30 525,-30 525,-10 505,-10"/>
<text text-anchor="start" x="528.629" y="-15.4" font-family="sans-serif" font-size="14.00" fill="#000000"> &#160;Declarations</text>
<polygon fill="#8dd3c7" stroke="transparent" points="618,-10 618,-30 638,-30 638,-10 618,-10"/>
<text text-anchor="start" x="641.7251" y="-15.4" font-family="sans-serif" font-size="14.00" fill="#000000"> &#160;Module</text>
<polygon fill="#80b1d3" stroke="transparent" points="704,-10 704,-30 724,-30 724,-10 704,-10"/>
<text text-anchor="start" x="727.7812" y="-15.4" font-family="sans-serif" font-size="14.00" fill="#000000"> &#160;Bootstrap</text>
<polygon fill="#fdb462" stroke="transparent" points="801,-10 801,-30 821,-30 821,-10 801,-10"/>
<text text-anchor="start" x="824.6732" y="-15.4" font-family="sans-serif" font-size="14.00" fill="#000000"> &#160;Providers</text>
<polygon fill="#fb8072" stroke="transparent" points="897,-10 897,-30 917,-30 917,-10 897,-10"/>
<text text-anchor="start" x="920.7258" y="-15.4" font-family="sans-serif" font-size="14.00" fill="#000000"> &#160;Exports</text>
<g id="clust1" class="cluster">
<title>cluster_ResourceRouterModule</title>
<polygon fill="none" stroke="#000000" stroke-dasharray="1,5" points="8,-70 8,-268 1470,-268 1470,-70 8,-70"/>
</g>
<g id="clust2" class="cluster">
<title>cluster_ResourceRouterModule_declarations</title>
<polygon fill="none" stroke="#000000" points="16,-78 16,-130 1462,-130 1462,-78 16,-78"/>
</g>
<g id="clust12" class="cluster">
<title>cluster_ResourceRouterModule_exports</title>
<polygon fill="none" stroke="#000000" points="177,-208 177,-260 1295,-260 1295,-208 177,-208"/>
</g>
<!-- ResourceOutletComponent -->
<g id="node1" class="node">
<title>ResourceOutletComponent</title>
<polygon fill="#ffffb3" stroke="#000000" points="1454.4115,-122 1285.5885,-122 1285.5885,-86 1454.4115,-86 1454.4115,-122"/>
<text text-anchor="middle" x="1370" y="-99.8" font-family="Times,serif" font-size="14.00" fill="#000000">ResourceOutletComponent</text>
</g>
<!-- ResourceRouterModule -->
<g id="node9" class="node">
<title>ResourceRouterModule</title>
<polygon fill="#8dd3c7" stroke="#000000" points="815.738,-187 812.738,-191 791.738,-191 788.738,-187 666.262,-187 666.262,-151 815.738,-151 815.738,-187"/>
<text text-anchor="middle" x="741" y="-164.8" font-family="Times,serif" font-size="14.00" fill="#000000">ResourceRouterModule</text>
</g>
<!-- ResourceOutletComponent&#45;&gt;ResourceRouterModule -->
<g id="edge1" class="edge">
<title>ResourceOutletComponent&#45;&gt;ResourceRouterModule</title>
<path fill="none" stroke="#000000" d="M1370.5805,-122.1061C1370.5805,-141.3391 1370.5805,-169 1370.5805,-169 1370.5805,-169 826.0049,-169 826.0049,-169"/>
<polygon fill="#000000" stroke="#000000" points="826.0049,-165.5001 816.0049,-169 826.0048,-172.5001 826.0049,-165.5001"/>
</g>
<!-- ResourceDataOfDirective -->
<g id="node2" class="node">
<title>ResourceDataOfDirective</title>
<polygon fill="#ffffb3" stroke="#000000" points="1267.8624,-122 1106.1376,-122 1106.1376,-86 1267.8624,-86 1267.8624,-122"/>
<text text-anchor="middle" x="1187" y="-99.8" font-family="Times,serif" font-size="14.00" fill="#000000">ResourceDataOfDirective</text>
</g>
<!-- ResourceDataOfDirective&#45;&gt;ResourceRouterModule -->
<g id="edge2" class="edge">
<title>ResourceDataOfDirective&#45;&gt;ResourceRouterModule</title>
<path fill="none" stroke="#000000" d="M1110.6818,-122.0225C1110.6818,-139.3734 1110.6818,-163 1110.6818,-163 1110.6818,-163 825.8106,-163 825.8106,-163"/>
<polygon fill="#000000" stroke="#000000" points="825.8107,-159.5001 815.8106,-163 825.8106,-166.5001 825.8107,-159.5001"/>
</g>
<!-- ResourceContextDirective -->
<g id="node3" class="node">
<title>ResourceContextDirective</title>
<polygon fill="#ffffb3" stroke="#000000" points="1088.0016,-122 923.9984,-122 923.9984,-86 1088.0016,-86 1088.0016,-122"/>
<text text-anchor="middle" x="1006" y="-99.8" font-family="Times,serif" font-size="14.00" fill="#000000">ResourceContextDirective</text>
</g>
<!-- ResourceContextDirective&#45;&gt;ResourceRouterModule -->
<g id="edge3" class="edge">
<title>ResourceContextDirective&#45;&gt;ResourceRouterModule</title>
<path fill="none" stroke="#000000" d="M928.1593,-122.2396C928.1593,-137.5706 928.1593,-157 928.1593,-157 928.1593,-157 825.7772,-157 825.7772,-157"/>
<polygon fill="#000000" stroke="#000000" points="825.7772,-153.5001 815.7772,-157 825.7772,-160.5001 825.7772,-153.5001"/>
</g>
<!-- ResourceViewDirective -->
<g id="node4" class="node">
<title>ResourceViewDirective</title>
<polygon fill="#ffffb3" stroke="#000000" points="906.4876,-122 755.5124,-122 755.5124,-86 906.4876,-86 906.4876,-122"/>
<text text-anchor="middle" x="831" y="-99.8" font-family="Times,serif" font-size="14.00" fill="#000000">ResourceViewDirective</text>
</g>
<!-- ResourceViewDirective&#45;&gt;ResourceRouterModule -->
<g id="edge4" class="edge">
<title>ResourceViewDirective&#45;&gt;ResourceRouterModule</title>
<path fill="none" stroke="#000000" d="M785.8127,-122.1061C785.8127,-122.1061 785.8127,-140.991 785.8127,-140.991"/>
<polygon fill="#000000" stroke="#000000" points="782.3128,-140.9909 785.8127,-150.991 789.3128,-140.991 782.3128,-140.9909"/>
</g>
<!-- ResourceLinkDirective -->
<g id="node5" class="node">
<title>ResourceLinkDirective</title>
<polygon fill="#ffffb3" stroke="#000000" points="737.1121,-122 590.8879,-122 590.8879,-86 737.1121,-86 737.1121,-122"/>
<text text-anchor="middle" x="664" y="-99.8" font-family="Times,serif" font-size="14.00" fill="#000000">ResourceLinkDirective</text>
</g>
<!-- ResourceLinkDirective&#45;&gt;ResourceRouterModule -->
<g id="edge5" class="edge">
<title>ResourceLinkDirective&#45;&gt;ResourceRouterModule</title>
<path fill="none" stroke="#000000" d="M701.7185,-122.1061C701.7185,-122.1061 701.7185,-140.991 701.7185,-140.991"/>
<polygon fill="#000000" stroke="#000000" points="698.2185,-140.9909 701.7185,-150.991 705.2185,-140.991 698.2185,-140.9909"/>
</g>
<!-- ResourceLinkWithHrefDirective -->
<g id="node6" class="node">
<title>ResourceLinkWithHrefDirective</title>
<polygon fill="#ffffb3" stroke="#000000" points="573.25,-122 372.75,-122 372.75,-86 573.25,-86 573.25,-122"/>
<text text-anchor="middle" x="473" y="-99.8" font-family="Times,serif" font-size="14.00" fill="#000000">ResourceLinkWithHrefDirective</text>
</g>
<!-- ResourceLinkWithHrefDirective&#45;&gt;ResourceRouterModule -->
<g id="edge6" class="edge">
<title>ResourceLinkWithHrefDirective&#45;&gt;ResourceRouterModule</title>
<path fill="none" stroke="#000000" d="M565.0903,-122.2396C565.0903,-137.5706 565.0903,-157 565.0903,-157 565.0903,-157 656.1434,-157 656.1434,-157"/>
<polygon fill="#000000" stroke="#000000" points="656.1434,-160.5001 666.1434,-157 656.1434,-153.5001 656.1434,-160.5001"/>
</g>
<!-- DefaultEmptyComponent -->
<g id="node7" class="node">
<title>DefaultEmptyComponent</title>
<polygon fill="#ffffb3" stroke="#000000" points="355.1442,-122 194.8558,-122 194.8558,-86 355.1442,-86 355.1442,-122"/>
<text text-anchor="middle" x="275" y="-99.8" font-family="Times,serif" font-size="14.00" fill="#000000">DefaultEmptyComponent</text>
</g>
<!-- DefaultEmptyComponent&#45;&gt;ResourceRouterModule -->
<g id="edge7" class="edge">
<title>DefaultEmptyComponent&#45;&gt;ResourceRouterModule</title>
<path fill="none" stroke="#000000" d="M275,-122.0225C275,-139.3734 275,-163 275,-163 275,-163 656.129,-163 656.129,-163"/>
<polygon fill="#000000" stroke="#000000" points="656.1291,-166.5001 666.129,-163 656.129,-159.5001 656.1291,-166.5001"/>
</g>
<!-- DefaultErrorComponent -->
<g id="node8" class="node">
<title>DefaultErrorComponent</title>
<polygon fill="#ffffb3" stroke="#000000" points="176.3445,-122 23.6555,-122 23.6555,-86 176.3445,-86 176.3445,-122"/>
<text text-anchor="middle" x="100" y="-99.8" font-family="Times,serif" font-size="14.00" fill="#000000">DefaultErrorComponent</text>
</g>
<!-- DefaultErrorComponent&#45;&gt;ResourceRouterModule -->
<g id="edge8" class="edge">
<title>DefaultErrorComponent&#45;&gt;ResourceRouterModule</title>
<path fill="none" stroke="#000000" d="M100,-122.1061C100,-141.3391 100,-169 100,-169 100,-169 656.2146,-169 656.2146,-169"/>
<polygon fill="#000000" stroke="#000000" points="656.2147,-172.5001 666.2146,-169 656.2146,-165.5001 656.2147,-172.5001"/>
</g>
<!-- ResourceOutletComponent  -->
<g id="node10" class="node">
<title>ResourceOutletComponent </title>
<polygon fill="#fb8072" stroke="#000000" points="1286.911,-252 1115.089,-252 1115.089,-216 1286.911,-216 1286.911,-252"/>
<text text-anchor="middle" x="1201" y="-229.8" font-family="Times,serif" font-size="14.00" fill="#000000">ResourceOutletComponent </text>
</g>
<!-- ResourceRouterModule&#45;&gt;ResourceOutletComponent  -->
<g id="edge9" class="edge">
<title>ResourceRouterModule&#45;&gt;ResourceOutletComponent </title>
<path fill="none" stroke="#000000" stroke-dasharray="5,2" d="M815.8738,-175C943.9363,-175 1191.3628,-175 1191.3628,-175 1191.3628,-175 1191.3628,-205.9775 1191.3628,-205.9775"/>
<polygon fill="#000000" stroke="#000000" points="1187.8628,-205.9774 1191.3628,-215.9775 1194.8628,-205.9775 1187.8628,-205.9774"/>
</g>
<!-- ResourceDataOfDirective  -->
<g id="node11" class="node">
<title>ResourceDataOfDirective </title>
<polygon fill="#fb8072" stroke="#000000" points="1097.3621,-252 932.6379,-252 932.6379,-216 1097.3621,-216 1097.3621,-252"/>
<text text-anchor="middle" x="1015" y="-229.8" font-family="Times,serif" font-size="14.00" fill="#000000">ResourceDataOfDirective </text>
</g>
<!-- ResourceRouterModule&#45;&gt;ResourceDataOfDirective  -->
<g id="edge10" class="edge">
<title>ResourceRouterModule&#45;&gt;ResourceDataOfDirective </title>
<path fill="none" stroke="#000000" stroke-dasharray="5,2" d="M816.0456,-181C895.7618,-181 1010.4097,-181 1010.4097,-181 1010.4097,-181 1010.4097,-205.7604 1010.4097,-205.7604"/>
<polygon fill="#000000" stroke="#000000" points="1006.9098,-205.7604 1010.4097,-215.7604 1013.9098,-205.7604 1006.9098,-205.7604"/>
</g>
<!-- ResourceContextDirective  -->
<g id="node12" class="node">
<title>ResourceContextDirective </title>
<polygon fill="#fb8072" stroke="#000000" points="915.0008,-252 746.9992,-252 746.9992,-216 915.0008,-216 915.0008,-252"/>
<text text-anchor="middle" x="831" y="-229.8" font-family="Times,serif" font-size="14.00" fill="#000000">ResourceContextDirective </text>
</g>
<!-- ResourceRouterModule&#45;&gt;ResourceContextDirective  -->
<g id="edge11" class="edge">
<title>ResourceRouterModule&#45;&gt;ResourceContextDirective </title>
<path fill="none" stroke="#000000" stroke-dasharray="5,2" d="M781.4343,-187.1061C781.4343,-187.1061 781.4343,-205.991 781.4343,-205.991"/>
<polygon fill="#000000" stroke="#000000" points="777.9343,-205.9909 781.4343,-215.991 784.9343,-205.991 777.9343,-205.9909"/>
</g>
<!-- ResourceViewDirective  -->
<g id="node13" class="node">
<title>ResourceViewDirective </title>
<polygon fill="#fb8072" stroke="#000000" points="728.9868,-252 575.0132,-252 575.0132,-216 728.9868,-216 728.9868,-252"/>
<text text-anchor="middle" x="652" y="-229.8" font-family="Times,serif" font-size="14.00" fill="#000000">ResourceViewDirective </text>
</g>
<!-- ResourceRouterModule&#45;&gt;ResourceViewDirective  -->
<g id="edge12" class="edge">
<title>ResourceRouterModule&#45;&gt;ResourceViewDirective </title>
<path fill="none" stroke="#000000" stroke-dasharray="5,2" d="M697.5623,-187.1061C697.5623,-187.1061 697.5623,-205.991 697.5623,-205.991"/>
<polygon fill="#000000" stroke="#000000" points="694.0623,-205.9909 697.5623,-215.991 701.0623,-205.991 694.0623,-205.9909"/>
</g>
<!-- ResourceLinkDirective  -->
<g id="node14" class="node">
<title>ResourceLinkDirective </title>
<polygon fill="#fb8072" stroke="#000000" points="557.1116,-252 406.8884,-252 406.8884,-216 557.1116,-216 557.1116,-252"/>
<text text-anchor="middle" x="482" y="-229.8" font-family="Times,serif" font-size="14.00" fill="#000000">ResourceLinkDirective </text>
</g>
<!-- ResourceRouterModule&#45;&gt;ResourceLinkDirective  -->
<g id="edge13" class="edge">
<title>ResourceRouterModule&#45;&gt;ResourceLinkDirective </title>
<path fill="none" stroke="#000000" stroke-dasharray="5,2" d="M666.0865,-181C589.5939,-181 482,-181 482,-181 482,-181 482,-205.7604 482,-205.7604"/>
<polygon fill="#000000" stroke="#000000" points="478.5001,-205.7604 482,-215.7604 485.5001,-205.7604 478.5001,-205.7604"/>
</g>
<!-- ResourceLinkWithHrefDirective  -->
<g id="node15" class="node">
<title>ResourceLinkWithHrefDirective </title>
<polygon fill="#fb8072" stroke="#000000" points="388.75,-252 185.25,-252 185.25,-216 388.75,-216 388.75,-252"/>
<text text-anchor="middle" x="287" y="-229.8" font-family="Times,serif" font-size="14.00" fill="#000000">ResourceLinkWithHrefDirective </text>
</g>
<!-- ResourceRouterModule&#45;&gt;ResourceLinkWithHrefDirective  -->
<g id="edge14" class="edge">
<title>ResourceRouterModule&#45;&gt;ResourceLinkWithHrefDirective </title>
<path fill="none" stroke="#000000" stroke-dasharray="5,2" d="M665.9444,-175C560.4021,-175 380.875,-175 380.875,-175 380.875,-175 380.875,-205.9775 380.875,-205.9775"/>
<polygon fill="#000000" stroke="#000000" points="377.3751,-205.9774 380.875,-215.9775 384.3751,-205.9775 377.3751,-205.9774"/>
</g>
</g>
</svg>
